<?xml version="1.0" encoding="utf-8"?>
<!-- Generator: Adobe Illustrator 23.0.1, SVG Export Plug-In . SVG Version: 6.00 Build 0)  -->
<svg version="1.1" id="Layer_1" xmlns="http://www.w3.org/2000/svg" xmlns:xlink="http://www.w3.org/1999/xlink" x="0px" y="0px"
	 viewBox="0 0 100 100" style="enable-background:new 0 0 100 100;" xml:space="preserve">
<path d="M50,5C25.19,5,5,25.19,5,50c0,24.81,20.19,45,45,45c24.81,0,45-20.19,45-45C95,25.19,74.81,5,50,5z M50,91
	C27.39,91,9,72.61,9,50S27.39,9,50,9s41,18.39,41,41S72.61,91,50,91z M77,44c0,1.1-0.9,2-2,2H25c-1.1,0-2-0.9-2-2s0.9-2,2-2h50
	C76.1,42,77,42.9,77,44z M29,32c0-1.1,0.9-2,2-2h38c1.1,0,2,0.9,2,2s-0.9,2-2,2H31C29.9,34,29,33.1,29,32z M77,56c0,1.1-0.9,2-2,2
	H25c-1.1,0-2-0.9-2-2s0.9-2,2-2h50C76.1,54,77,54.9,77,56z M71,68c0,1.1-0.9,2-2,2H31c-1.1,0-2-0.9-2-2s0.9-2,2-2h38
	C70.1,66,71,66.9,71,68z" fill='#F5F0F2'/>
</svg>
