<?xml version="1.0" encoding="utf-8"?>
<!-- Generator: Adobe Illustrator 23.0.1, SVG Export Plug-In . SVG Version: 6.00 Build 0)  -->
<svg version="1.1" id="Layer_1" xmlns="http://www.w3.org/2000/svg" xmlns:xlink="http://www.w3.org/1999/xlink" x="0px" y="0px"
	 viewBox="0 0 100 100" style="enable-background:new 0 0 100 100;" xml:space="preserve">
<path d="M35,40V20c0-8.3,6.7-15,15-15c8.3,0,15,6.7,15,15v20c0,8.3-6.7,15-15,15C41.7,55,35,48.3,35,40z M75,40c0-1.1-0.9-2-2-2
	s-2,0.9-2,2c0,11.6-9.4,21-21,21c-11.6,0-21-9.4-21-21c0-1.1-0.9-2-2-2s-2,0.9-2,2c0,13.1,10.1,23.9,23,24.9V93c0,1.1,0.9,2,2,2
	s2-0.9,2-2V64.9C64.9,63.9,75,53.1,75,40z" fill='#F5F0F2'/>
</svg>
