<?xml version="1.0" encoding="utf-8"?>
<!-- Generator: Adobe Illustrator 23.0.1, SVG Export Plug-In . SVG Version: 6.00 Build 0)  -->
<svg version="1.1" id="Layer_1" xmlns="http://www.w3.org/2000/svg" xmlns:xlink="http://www.w3.org/1999/xlink" x="0px" y="0px"
	 viewBox="0 0 100 100" style="enable-background:new 0 0 100 100;" xml:space="preserve">
<path d="M50,55c8.3,0,15-6.7,15-15V20c0-8.3-6.7-15-15-15c-8.3,0-15,6.7-15,15v20C35,48.3,41.7,55,50,55z M39,20c0-6.1,4.9-11,11-11
	s11,4.9,11,11v20c0,6.1-4.9,11-11,11s-11-4.9-11-11V20z M52,64.9V93c0,1.1-0.9,2-2,2s-2-0.9-2-2V64.9c-12.9-1-23-11.8-23-24.9
	c0-1.1,0.9-2,2-2s2,0.9,2,2c0,11.6,9.4,21,21,21c11.6,0,21-9.4,21-21c0-1.1,0.9-2,2-2s2,0.9,2,2C75,53.1,64.9,63.9,52,64.9z" fill='#F5F0F2'/>
</svg>
